<svg width="91" height="51" viewBox="0 0 91 51" fill="none" xmlns="http://www.w3.org/2000/svg">
<path d="M49.564 18.3311H52.205C52.3451 18.3311 52.4794 18.2755 52.5784 18.1765C52.6774 18.0775 52.733 17.9432 52.733 17.8031V14.2441C52.7334 14.1107 52.6831 13.9821 52.5924 13.8843C52.5016 13.7865 52.3771 13.7268 52.244 13.7171C51.4 13.6581 49.763 13.5771 48.582 13.5771C45.338 13.5771 43.226 15.5211 43.226 19.0531V22.5531H39.526C39.4567 22.5531 39.388 22.5668 39.324 22.5933C39.2599 22.6199 39.2017 22.6588 39.1527 22.7078C39.1037 22.7568 39.0648 22.815 39.0382 22.8791C39.0117 22.9432 38.998 23.0118 38.998 23.0811V26.7811C38.998 26.8505 39.0117 26.9191 39.0382 26.9832C39.0648 27.0473 39.1037 27.1055 39.1527 27.1545C39.2017 27.2035 39.2599 27.2424 39.324 27.269C39.388 27.2955 39.4567 27.3091 39.526 27.3091H43.226V37.3461C43.226 37.4862 43.2817 37.6205 43.3807 37.7195C43.4797 37.8185 43.614 37.8741 43.754 37.8741H47.454C47.5941 37.8741 47.7284 37.8185 47.8274 37.7195C47.9264 37.6205 47.982 37.4862 47.982 37.3461V27.3101H51.797C51.9271 27.3102 52.0525 27.2623 52.1494 27.1755C52.2463 27.0888 52.3078 26.9694 52.322 26.8401L52.733 23.1401C52.7412 23.0663 52.7337 22.9917 52.711 22.921C52.6884 22.8503 52.651 22.7851 52.6015 22.7298C52.552 22.6745 52.4913 22.6303 52.4235 22.6C52.3557 22.5698 52.2823 22.5541 52.208 22.5541H47.979V19.9151C47.9793 19.495 48.1464 19.0921 48.4436 18.795C48.7409 18.498 49.1439 18.3311 49.564 18.3311Z" fill="#3F51B4"/>
</svg>
