<svg width="91" height="51" viewBox="0 0 91 51" fill="none" xmlns="http://www.w3.org/2000/svg">
<path d="M58.568 23.3811H57.529V23.3281H45.91V28.4921H53.21C52.658 30.0598 51.6168 31.4085 50.2401 32.3395C48.8633 33.2705 47.2238 33.7345 45.5634 33.6629C43.9029 33.5914 42.3094 32.9882 41.0178 31.9422C39.7262 30.8963 38.8049 29.4629 38.3898 27.8536C37.9747 26.2443 38.0877 24.5442 38.7122 23.004C39.3367 21.4638 40.4396 20.165 41.8583 19.2992C43.2769 18.4334 44.9363 18.0464 46.5916 18.1953C48.2469 18.3442 49.8106 19.0211 51.052 20.1261L54.7 16.4751C52.4502 14.388 49.5292 13.1727 46.4629 13.0482C43.3966 12.9237 40.3866 13.898 37.975 15.7958C35.5634 17.6936 33.9086 20.3901 33.3087 23.3997C32.7088 26.4093 33.2032 29.5342 34.7028 32.2116C36.2024 34.889 38.6087 36.9431 41.4884 38.0038C44.368 39.0645 47.5318 39.0621 50.4098 37.9972C53.2879 36.9323 55.6912 34.8747 57.1869 32.1951C58.6826 29.5154 59.1723 26.3898 58.568 23.3811Z" fill="#FFC107"/>
<path d="M34.483 19.9001L38.727 23.0121C39.1895 21.8605 39.9224 20.8372 40.8638 20.0287C41.8052 19.2202 42.9275 18.6503 44.1357 18.3671C45.3439 18.0839 46.6025 18.0958 47.8052 18.4018C49.0078 18.7078 50.1191 19.2989 51.045 20.1251L54.696 16.4741C53.247 15.1184 51.5044 14.1157 49.6041 13.5443C47.7038 12.9729 45.6972 12.8481 43.7408 13.1797C41.7844 13.5113 39.931 14.2903 38.3251 15.456C36.7193 16.6217 35.4044 18.1426 34.483 19.9001Z" fill="#FF3D00"/>
<path d="M45.91 38.821C49.1119 38.822 52.1989 37.6281 54.567 35.473L50.567 32.092C49.5998 32.8251 48.4735 33.32 47.2793 33.5366C46.0852 33.7532 44.8568 33.6854 43.6937 33.3387C42.5306 32.992 41.4656 32.3761 40.585 31.541C39.7044 30.7059 39.0329 29.675 38.625 28.532L34.422 31.773C35.501 33.8927 37.145 35.6728 39.1724 36.9166C41.1997 38.1604 43.5315 38.8195 45.91 38.821Z" fill="#4CAF50"/>
<path d="M58.568 23.3811H57.529V23.3281H45.91V28.4921H53.21C52.7006 29.9242 51.7828 31.1757 50.57 32.0921L54.57 35.4731C55.9276 34.2818 57.0109 32.8103 57.7453 31.1601C58.4797 29.5099 58.8477 27.7202 58.824 25.9141C58.8226 25.0634 58.7368 24.2149 58.568 23.3811Z" fill="#1976D2"/>
</svg>
