<svg width="91" height="51" viewBox="0 0 91 51" fill="none" xmlns="http://www.w3.org/2000/svg">
<path d="M61.255 15.9769C60.0828 16.4927 58.8407 16.832 57.569 16.9839C58.9051 16.19 59.9075 14.9382 60.39 13.4609C59.1301 14.2017 57.753 14.7222 56.318 14.9999C55.358 13.9676 54.0839 13.2812 52.6937 13.0473C51.3035 12.8133 49.875 13.0449 48.6299 13.7061C47.3849 14.3672 46.3929 15.421 45.8082 16.7037C45.2234 17.9865 45.0785 19.4264 45.396 20.7999C42.8519 20.6764 40.3619 20.0218 38.0859 18.8782C35.81 17.7346 33.7986 16.1274 32.181 14.1599C31.6098 15.1294 31.31 16.2347 31.313 17.3599C31.3136 18.4088 31.5744 19.4412 32.0722 20.3644C32.5699 21.2877 33.289 22.073 34.165 22.6499C33.1477 22.6165 32.1523 22.3449 31.259 21.8569V21.9319C31.264 23.4051 31.7788 24.8312 32.716 25.9679C33.6531 27.1047 34.9548 27.882 36.4 28.1679C35.8509 28.318 35.2843 28.3943 34.715 28.3949C34.3086 28.392 33.9033 28.3521 33.504 28.2759C33.92 29.5428 34.7202 30.6486 35.7935 31.4398C36.8668 32.231 38.1598 32.6683 39.493 32.6909C37.2147 34.4591 34.412 35.4173 31.528 35.4139C31.0187 35.4143 30.5097 35.3839 30.004 35.3229C32.9439 37.1875 36.3537 38.1767 39.835 38.1749C42.2252 38.2019 44.5969 37.7537 46.8123 36.8562C49.0277 35.9587 51.0427 34.6298 52.7401 32.9469C54.4375 31.2639 55.7835 29.2603 56.6998 27.0527C57.6162 24.845 58.0847 22.4772 58.078 20.0869C58.078 19.8119 58.068 19.5379 58.054 19.2699C59.3121 18.376 60.3965 17.2601 61.254 15.9769" fill="#03A9F4"/>
</svg>
